<mxfile host="app.diagrams.net" modified="2022-12-23T03:18:11.807Z" agent="5.0 (Windows NT 10.0; Win64; x64) AppleWebKit/537.36 (KHTML, like Gecko) Chrome/108.0.0.0 Safari/537.36 Edg/108.0.1462.54" version="20.7.4" etag="AoWLXGxjOQ8VcK-Q2clr" type="github">
  <diagram id="a2kdHnC1vAJIyi0-q7as" name="Page-1">
    <mxGraphModel dx="616" dy="573" grid="1" gridSize="10" guides="1" tooltips="1" connect="1" arrows="1" fold="1" page="1" pageScale="1" pageWidth="850" pageHeight="1100" math="0" shadow="0">
      <root>
        <mxCell id="0" />
        <mxCell id="1" parent="0" />
        <mxCell id="IpSV75OZ7hpZ9cHudES9-3" value="" style="edgeStyle=orthogonalEdgeStyle;rounded=0;orthogonalLoop=1;jettySize=auto;html=1;" edge="1" parent="1" source="IpSV75OZ7hpZ9cHudES9-1" target="IpSV75OZ7hpZ9cHudES9-2">
          <mxGeometry relative="1" as="geometry" />
        </mxCell>
        <mxCell id="IpSV75OZ7hpZ9cHudES9-1" value="START&lt;br&gt;enter_to_continue()" style="ellipse;whiteSpace=wrap;html=1;" vertex="1" parent="1">
          <mxGeometry x="160" width="120" height="60" as="geometry" />
        </mxCell>
        <mxCell id="IpSV75OZ7hpZ9cHudES9-5" value="" style="edgeStyle=orthogonalEdgeStyle;rounded=0;orthogonalLoop=1;jettySize=auto;html=1;" edge="1" parent="1" source="IpSV75OZ7hpZ9cHudES9-2" target="IpSV75OZ7hpZ9cHudES9-4">
          <mxGeometry relative="1" as="geometry" />
        </mxCell>
        <mxCell id="IpSV75OZ7hpZ9cHudES9-2" value="Prompt user to press ENTER to continue the program" style="shape=parallelogram;perimeter=parallelogramPerimeter;whiteSpace=wrap;html=1;fixedSize=1;" vertex="1" parent="1">
          <mxGeometry x="120" y="100" width="200" height="60" as="geometry" />
        </mxCell>
        <mxCell id="IpSV75OZ7hpZ9cHudES9-4" value="END&lt;br&gt;enter_to_continue()" style="ellipse;whiteSpace=wrap;html=1;" vertex="1" parent="1">
          <mxGeometry x="160" y="200" width="120" height="60" as="geometry" />
        </mxCell>
      </root>
    </mxGraphModel>
  </diagram>
</mxfile>
